PathFileType	4	(X/Y/Z)	C:\Users\WrightLab\Desktop\Jo\P1.2Trial27.trc
DataRate	CameraRate	NumFrames	NumMarkers	Units	OrigDataRate	OrigDataStartFrame	OrigNumFrames
100.00	100.00	       48	19	mm	100.00	237	       946
Frame#	Time	Headset_Front			Headset_Back			Headset_Left			Headset_Right			Left_Shoulder			Right_Shoulder			Sternum			C7			Left Elbow			Right Elbow			Left Wrist			Right Wrist			Left ASIS			Right ASIS			S2			Left Knee			Right Knee			Left Ankle			Right Ankle			
		X1	Y1	Z1	X2	Y2	Z2	X3	Y3	Z3	X4	Y4	Z4	X5	Y5	Z5	X6	Y6	Z6	X7	Y7	Z7	X8	Y8	Z8	X9	Y9	Z9	X10	Y10	Z10	X11	Y11	Z11	X12	Y12	Z12	X13	Y13	Z13	X14	Y14	Z14	X15	Y15	Z15	X16	Y16	Z16	X17	Y17	Z17	X18	Y18	Z18	X19	Y19	Z19	

237	2.360																												-281.49139	976.30090	1488.89966				-339.55188	706.88995	1470.91602				-479.29623	827.00708	1479.44849							-437.21426	430.90323	1572.98828							
238	2.370							-690.39661	1414.26819	1432.18933																			-286.96387	976.05383	1489.87646				-339.98361	706.38562	1476.74023				-481.88162	826.93506	1477.12109							-438.69980	431.01001	1571.30920							
239	2.380							-695.19708	1413.33875	1430.64941																			-293.60248	975.43231	1491.05396				-338.48337	706.52673	1479.98242				-484.71283	826.76312	1476.44006							-440.30930	430.24359	1570.76050							
240	2.390							-700.17615	1412.48694	1429.05200																			-299.21121	975.09027	1490.86279				-339.65103	706.65405	1482.38025				-487.76331	826.45892	1475.99316							-442.57407	430.41608	1569.07532							
241	2.400							-704.74951	1411.26428	1427.44202																			-303.25543	975.72473	1491.40088				-341.12326	707.07135	1484.46326				-490.90335	826.20337	1475.64319							-444.58691	429.88080	1567.89990							
242	2.410							-709.53058	1409.96692	1425.80493																			-307.36774	975.07385	1491.12976				-341.75696	707.26459	1485.28247				-494.37256	825.74060	1475.64404							-446.88101	429.98071	1565.60449							
243	2.420							-714.65802	1409.04138	1424.10315																			-311.57861	975.82568	1490.83191				-342.94815	706.87885	1485.95703				-498.29794	826.15485	1472.39001							-448.84692	428.65826	1563.63684							
244	2.430							-719.36768	1407.27173	1422.11792																			-315.09399	975.92407	1489.58582				-343.75522	706.98053	1485.65601				-502.40298	825.84802	1471.19446							-450.33344	428.32611	1560.80554							
245	2.440							-724.82544	1406.69519	1420.59045																			-319.10730	975.85278	1488.01697				-345.41873	707.56989	1484.37280				-505.89429	825.58838	1469.32813							-453.61771	428.02036	1558.64111							
246	2.450							-729.81244	1405.22412	1418.79517																			-322.83884	975.72949	1485.65637				-346.74014	707.57257	1481.38892				-509.90988	825.87305	1466.16248							-455.13147	427.26047	1556.89307							
247	2.460							-735.13104	1404.06299	1416.89807																			-326.45483	976.26007	1483.92200				-348.54465	707.45959	1477.02881				-514.06726	824.60980	1465.96851							-458.89267	426.95935	1553.90344							
248	2.470							-740.66034	1402.73645	1415.03772																			-329.39185	976.14874	1481.57678				-350.52737	707.27722	1473.21472				-518.02264	823.80750	1463.23376							-461.62238	426.57730	1550.68115							
249	2.480							-746.32306	1401.17212	1413.10400																			-332.50488	976.18683	1479.17957				-352.40225	707.68036	1468.08154				-522.47137	823.58624	1460.51147							-465.38181	424.48370	1548.04907							
250	2.490							-752.47064	1400.08032	1411.09705																			-336.49261	976.61621	1476.78333				-353.88174	707.37994	1462.01001				-526.90430	823.85889	1452.53748							-469.61963	424.03912	1544.66968							
251	2.500							-758.44177	1398.72717	1409.01331																			-339.75415	976.80310	1474.32410				-356.41635	707.30975	1455.14844				-531.55774	822.75702	1451.13440							-472.18683	422.34314	1542.31689							
252	2.510							-763.96527	1396.83875	1406.84717																			-343.22620	976.71423	1472.39954				-358.66586	707.10614	1449.04358				-536.72473	821.22406	1450.26147							-475.49551	420.27667	1539.12720							
253	2.520							-769.73322	1395.34070	1404.55396																			-346.67603	976.33942	1470.38525				-360.37164	706.96155	1442.15393				-541.74933	821.09204	1442.91125							-479.95114	419.32736	1535.97937							
254	2.530							-776.02362	1393.95557	1402.18616																			-350.71625	976.07385	1468.46008				-362.90152	706.68927	1436.07678				-546.98053	819.98676	1440.01807							-484.07205	418.42136	1532.51355							
255	2.540							-782.47961	1392.43054	1399.71179																			-355.13977	976.25702	1465.77380				-364.44733	707.05896	1429.30005				-552.54584	819.24036	1433.95105							-488.73947	416.48453	1528.65222							
256	2.550							-788.46869	1391.02271	1397.08008																			-359.31268	976.02887	1463.51599				-367.26349	706.52759	1422.23022				-558.85132	818.49817	1431.39673							-492.51590	415.55078	1524.97021							
257	2.560				-670.72491	1504.74146	1416.15942	-794.59106	1389.71814	1394.35022																			-363.91666	976.03741	1461.01379				-368.69998	707.05786	1414.82666				-565.12823	816.24219	1428.59351							-496.95947	414.99567	1521.19604							
258	2.570				-676.89020	1503.40454	1415.12256	-801.29785	1388.55896	1391.60352																			-368.67923	975.58167	1459.01184				-371.37936	707.12061	1408.62439				-571.45551	816.60651	1421.88440							-502.49164	413.38376	1515.89636							
259	2.580				-684.25671	1502.83203	1414.13000	-808.64008	1387.01404	1388.49951																			-373.74548	975.31488	1457.33020				-372.96872	707.27319	1401.55481				-578.78076	814.48657	1420.31726							-507.66547	412.50439	1512.08850							
260	2.590				-691.24841	1501.87427	1413.04663	-813.89026	1386.66541	1385.55872				-862.18359	1255.13965	1577.62036													-379.38367	974.65747	1455.69519				-375.21033	708.06934	1395.78235				-585.71582	814.43506	1414.22046							-513.04401	411.65912	1509.22681							
261	2.600				-697.35077	1500.72229	1411.89185	-821.10376	1385.72791	1382.04077				-870.19519	1253.63708	1572.63306													-384.95349	974.75592	1454.22461				-378.02072	708.47089	1389.77441				-593.28357	812.95483	1408.53394							-517.86578	411.05157	1505.55835							
262	2.610				-704.61768	1500.47412	1410.47656	-827.15991	1386.12085	1378.75708				-878.99951	1251.89038	1569.43750													-391.35284	973.94470	1451.80566				-380.96768	708.55914	1383.12683				-600.98431	811.11133	1406.49976							-524.22437	410.46909	1499.75574							
263	2.620				-712.00830	1500.56458	1408.81897	-834.36304	1385.94092	1374.83972				-887.91119	1250.36731	1565.78906													-398.17133	973.43140	1449.97827				-384.30249	708.69257	1378.23071				-609.31244	811.50482	1400.37549							-529.89728	409.10748	1496.44739							
264	2.630				-718.55811	1500.40820	1406.84375	-841.11981	1386.37476	1370.86060				-896.61725	1249.21326	1560.44482													-405.37024	973.49359	1448.14233				-387.38193	709.72327	1373.23315				-617.70709	810.57544	1393.90808							-536.75769	409.70251	1491.25513							
265	2.640				-726.31750	1501.05371	1404.72437	-848.02826	1387.24158	1366.60474				-905.83075	1248.77283	1556.32007													-413.08313	973.95667	1447.01392				-391.15842	710.13098	1369.39172				-626.63281	810.68915	1388.37463							-543.72498	408.99850	1487.16626							
266	2.650				-733.02362	1501.44922	1402.42004	-855.05627	1388.40393	1362.20117				-914.85724	1247.87402	1551.08008													-421.57910	974.20691	1444.49329				-395.53195	710.60883	1365.00598				-635.64282	810.06525	1386.57666							-550.67700	408.11624	1484.85669							
267	2.660				-740.85638	1502.47583	1399.94568	-862.17816	1389.96753	1357.65967				-923.90649	1247.66650	1546.27246													-428.93317	974.65204	1442.31787				-399.77365	712.07819	1361.45398				-644.85797	809.47614	1384.97180							-559.24445	408.29977	1480.39917							
268	2.670				-747.56439	1503.09741	1397.28809	-869.67468	1391.72510	1353.18811				-932.84442	1248.20154	1541.47742													-438.37814	975.72156	1440.03052				-405.35315	714.08807	1358.39600				-654.18188	811.05023	1379.34070							-567.36981	409.10999	1475.66394							
269	2.680				-755.66614	1504.44568	1394.61707	-876.54669	1393.13635	1348.53479				-941.67865	1248.93982	1536.79810													-447.62051	976.19995	1438.28711				-410.64264	716.13434	1356.38525				-663.23285	812.26483	1374.80823							-577.16779	409.18625	1471.27161							
270	2.690				-762.71130	1505.56372	1391.62183	-884.01477	1395.13403	1343.74158				-950.40924	1249.95862	1532.82593													-457.33167	977.25879	1436.49316				-416.66672	718.33252	1354.29919				-672.37018	813.65314	1370.36096							-586.98438	410.39432	1467.49231							
271	2.700				-770.25684	1507.11829	1388.47668	-891.55707	1397.09827	1339.13611				-959.01959	1251.11511	1529.10547													-467.22321	979.33221	1433.62585				-422.30798	720.68817	1354.09509				-681.41919	815.03192	1364.94092							-596.90796	411.84262	1462.65979							
272	2.710				-778.17804	1508.97046	1385.38013	-898.62427	1399.18201	1334.57410				-967.14783	1252.81409	1523.63293													-477.80371	980.49976	1431.52490				-428.87421	723.76123	1352.70679				-690.45435	818.00629	1361.22278							-607.85754	413.46194	1459.19250							
273	2.720				-785.19995	1510.30103	1382.33923	-906.06970	1401.34253	1330.24292				-975.17218	1254.52417	1518.45850													-487.03015	982.45593	1429.52588				-436.57465	725.32465	1350.62170				-699.12207	819.14630	1357.21704							-618.24597	415.87787	1452.76111							
274	2.730				-793.21997	1512.05664	1379.31897	-913.33728	1402.95349	1326.09631				-983.15405	1256.18066	1516.06348													-496.91425	984.57275	1426.68982				-444.41602	728.14905	1351.76355				-707.56659	821.17688	1355.19214							-629.50000	417.98944	1447.45837							
275	2.740				-800.08099	1513.39636	1376.37524	-920.47217	1404.98901	1322.18750				-991.05505	1257.49268	1513.30090													-506.78894	986.54718	1424.01184				-452.72372	730.33105	1350.65283				-715.93683	824.53009	1349.49316							-639.57239	420.08774	1442.30603							
276	2.750				-807.70593	1515.20508	1373.48267	-928.42676	1407.83655	1318.68726				-998.45013	1259.00256	1508.89355													-515.44037	988.47791	1421.30432				-461.31476	732.45758	1349.65222				-723.95813	825.90131	1348.37671							-650.38177	420.90982	1440.02539							
277	2.760				-814.70502	1516.78357	1370.59802	-934.72833	1408.55200	1314.76025				-1005.76776	1260.12329	1505.49304													-523.65643	991.54614	1418.40674				-470.15350	734.78082	1348.38489				-731.04718	828.83203	1342.75037							-660.39624	422.79745	1434.55432							
278	2.770				-822.19373	1518.40015	1367.89612	-941.45062	1410.38843	1311.34412				-1012.79559	1261.18298	1501.35242													-531.49994	992.77850	1415.46619				-479.53198	736.04779	1346.56885				-738.30005	831.06702	1338.20850							-670.51276	425.15625	1426.57300							
279	2.780				-828.59326	1519.67651	1365.13611	-948.66101	1412.21033	1307.94287				-1019.72009	1261.70422	1499.13770													-539.26160	994.79919	1412.72791				-490.51801	737.56268	1344.00574				-744.66925	833.28198	1335.89697							-680.28583	424.84564	1418.64941							
280	2.790				-835.89172	1521.48645	1362.52332	-955.10675	1413.75989	1304.78760				-1026.35864	1262.31482	1495.69641													-546.44495	996.36377	1408.38550				-500.65289	738.79431	1342.04797				-751.20477	834.44501	1333.04883							-689.17188	424.50143	1410.83105							
281	2.800				-842.46539	1523.10437	1359.85168	-961.87738	1415.49194	1301.69653				-1032.71887	1262.78088	1493.84546													-552.45319	997.61719	1403.92957				-512.19672	739.12262	1339.03259				-757.28217	836.61493	1328.90723							-698.90771	424.56116	1399.66956							
282	2.810				-849.00427	1524.53967	1357.16821	-968.12634	1417.10864	1298.67529				-1038.83948	1263.22302	1491.66309													-558.89984	998.96143	1398.95288				-522.11682	741.67194	1335.23865				-762.69946	837.84802	1326.10291							-707.32739	424.06833	1391.21350							
283	2.820				-855.61450	1526.06982	1354.69263	-974.59882	1418.66418	1295.78101				-1044.75867	1263.71240	1488.63562													-565.19348	1000.01941	1393.79797				-530.47687	744.05927	1329.07263				-767.44263	839.89783	1317.33191							-716.15326	423.86255	1382.00024							
284	2.830				-861.30774	1527.23511	1352.09851	-981.73364	1421.25354	1293.26685				-1050.64197	1264.10400	1486.48474													-570.94562	1001.09851	1389.53345				-537.75055	746.14087	1320.05164				-772.18176	841.30133	1313.86865							-724.44531	424.26965	1370.57349							
